<mxfile host="app.diagrams.net" agent="Mozilla/5.0 (Windows NT 10.0; Win64; x64) AppleWebKit/537.36 (KHTML, like Gecko) Chrome/140.0.0.0 Safari/537.36" version="28.2.3">
  <diagram name="Page-1" id="KipqGKVDNm00_N8bb78G">
    <mxGraphModel dx="946" dy="623" grid="1" gridSize="10" guides="1" tooltips="1" connect="1" arrows="1" fold="1" page="1" pageScale="1" pageWidth="827" pageHeight="1169" math="0" shadow="0">
      <root>
        <mxCell id="0" />
        <mxCell id="1" parent="0" />
        <mxCell id="uLkaXcbXcqxLuzrevHrL-1" value="" style="rounded=0;whiteSpace=wrap;html=1;" vertex="1" parent="1">
          <mxGeometry x="90" y="60" width="770" height="530" as="geometry" />
        </mxCell>
        <mxCell id="uLkaXcbXcqxLuzrevHrL-16" value="" style="whiteSpace=wrap;html=1;aspect=fixed;" vertex="1" parent="1">
          <mxGeometry x="510" y="185" width="50" height="50" as="geometry" />
        </mxCell>
        <mxCell id="uLkaXcbXcqxLuzrevHrL-2" value="" style="rounded=0;whiteSpace=wrap;html=1;" vertex="1" parent="1">
          <mxGeometry x="90" y="60" width="770" height="60" as="geometry" />
        </mxCell>
        <mxCell id="uLkaXcbXcqxLuzrevHrL-3" value="" style="rounded=0;whiteSpace=wrap;html=1;" vertex="1" parent="1">
          <mxGeometry x="220" y="180" width="280" height="60" as="geometry" />
        </mxCell>
        <mxCell id="uLkaXcbXcqxLuzrevHrL-5" value="" style="rounded=0;whiteSpace=wrap;html=1;" vertex="1" parent="1">
          <mxGeometry x="220" y="250" width="280" height="60" as="geometry" />
        </mxCell>
        <mxCell id="uLkaXcbXcqxLuzrevHrL-6" value="" style="rounded=0;whiteSpace=wrap;html=1;" vertex="1" parent="1">
          <mxGeometry x="220" y="320" width="280" height="60" as="geometry" />
        </mxCell>
        <mxCell id="uLkaXcbXcqxLuzrevHrL-7" value="" style="endArrow=none;dashed=1;html=1;rounded=0;entryX=0.351;entryY=0.642;entryDx=0;entryDy=0;entryPerimeter=0;" edge="1" parent="1" target="uLkaXcbXcqxLuzrevHrL-1">
          <mxGeometry width="50" height="50" relative="1" as="geometry">
            <mxPoint x="360" y="510" as="sourcePoint" />
            <mxPoint x="440" y="300" as="targetPoint" />
          </mxGeometry>
        </mxCell>
        <mxCell id="uLkaXcbXcqxLuzrevHrL-8" value="" style="ellipse;whiteSpace=wrap;html=1;aspect=fixed;" vertex="1" parent="1">
          <mxGeometry x="180" y="200" width="20" height="20" as="geometry" />
        </mxCell>
        <mxCell id="uLkaXcbXcqxLuzrevHrL-9" value="" style="ellipse;whiteSpace=wrap;html=1;aspect=fixed;" vertex="1" parent="1">
          <mxGeometry x="180" y="270" width="20" height="20" as="geometry" />
        </mxCell>
        <mxCell id="uLkaXcbXcqxLuzrevHrL-10" value="" style="ellipse;whiteSpace=wrap;html=1;aspect=fixed;" vertex="1" parent="1">
          <mxGeometry x="180" y="340" width="20" height="20" as="geometry" />
        </mxCell>
        <mxCell id="uLkaXcbXcqxLuzrevHrL-11" value="" style="rounded=0;whiteSpace=wrap;html=1;" vertex="1" parent="1">
          <mxGeometry x="220" y="530" width="280" height="50" as="geometry" />
        </mxCell>
        <mxCell id="uLkaXcbXcqxLuzrevHrL-12" value="" style="whiteSpace=wrap;html=1;aspect=fixed;" vertex="1" parent="1">
          <mxGeometry x="510" y="530" width="50" height="50" as="geometry" />
        </mxCell>
        <mxCell id="uLkaXcbXcqxLuzrevHrL-13" value="&lt;font style=&quot;font-size: 65px;&quot;&gt;+&lt;/font&gt;" style="text;html=1;align=center;verticalAlign=middle;whiteSpace=wrap;rounded=0;" vertex="1" parent="1">
          <mxGeometry x="505" y="540" width="60" height="30" as="geometry" />
        </mxCell>
        <mxCell id="uLkaXcbXcqxLuzrevHrL-14" value="" style="ellipse;html=1;shape=endState;fillColor=#000000;strokeColor=#ff0000;" vertex="1" parent="1">
          <mxGeometry x="175" y="195" width="30" height="30" as="geometry" />
        </mxCell>
        <mxCell id="uLkaXcbXcqxLuzrevHrL-15" value="" style="shape=umlDestroy;whiteSpace=wrap;html=1;strokeWidth=3;targetShapes=umlLifeline;" vertex="1" parent="1">
          <mxGeometry x="515" y="190" width="40" height="40" as="geometry" />
        </mxCell>
        <mxCell id="uLkaXcbXcqxLuzrevHrL-21" value="" style="endArrow=none;html=1;rounded=0;entryX=0.675;entryY=0.472;entryDx=0;entryDy=0;entryPerimeter=0;" edge="1" parent="1">
          <mxGeometry width="50" height="50" relative="1" as="geometry">
            <mxPoint x="230.25" y="229.84" as="sourcePoint" />
            <mxPoint x="230" y="189.99999999999997" as="targetPoint" />
          </mxGeometry>
        </mxCell>
        <mxCell id="uLkaXcbXcqxLuzrevHrL-22" value="" style="rounded=0;whiteSpace=wrap;html=1;" vertex="1" parent="1">
          <mxGeometry x="827" y="150" width="17" height="400" as="geometry" />
        </mxCell>
        <mxCell id="uLkaXcbXcqxLuzrevHrL-23" value="ラジオボタンを選択するとタスクの編集、削除ができる。" style="text;html=1;align=center;verticalAlign=middle;whiteSpace=wrap;rounded=0;" vertex="1" parent="1">
          <mxGeometry x="250" y="195" width="240" height="30" as="geometry" />
        </mxCell>
        <mxCell id="uLkaXcbXcqxLuzrevHrL-24" value="タスクの名前が表示される。" style="text;html=1;align=center;verticalAlign=middle;whiteSpace=wrap;rounded=0;" vertex="1" parent="1">
          <mxGeometry x="260" y="260" width="160" height="30" as="geometry" />
        </mxCell>
        <mxCell id="uLkaXcbXcqxLuzrevHrL-25" value="追加したいタスクの名前を入力して右のボタンを押すと追加できる。" style="text;html=1;align=center;verticalAlign=middle;whiteSpace=wrap;rounded=0;" vertex="1" parent="1">
          <mxGeometry x="220" y="540" width="200" height="30" as="geometry" />
        </mxCell>
      </root>
    </mxGraphModel>
  </diagram>
</mxfile>
